<svg height="460.52563" viewBox="0 0 888 460.52563" width="888" xmlns="http://www.w3.org/2000/svg"><path d="m369.70122 672.44322-21.87443-34.71387 21.88457 38.49557.01173 3.95547q2.34084-.02736 4.63442-.17946l-1.78417-50.81218.02346-.39275-.0402-.075-.16988-4.80142 22.87164-38.04637-22.89523 34.4507-.06851 1.017-1.34778-38.39059 19.66232-39.36387-19.816 32.61808-.92176-79.573-.00422-.26483-.00317.2606-.44881 62.73791-18.78843-25.10244 18.80506 30.50606.08719 34.362-17.4329-33.18692 17.44253 38.23878.04824 19.107-25.32289-46.20812 25.34285 52.87363z" fill="#e2e2e2" transform="translate(-156 -219.73719)"/><path d="m557.41283 672.44322-21.87443-34.71387 21.8846 38.49557.01173 3.95547q2.34084-.02736 4.63442-.17946l-1.78415-50.81218.02346-.39275-.0402-.075-.16988-4.80142 22.87162-38.04635-22.89524 34.4507-.0685 1.017-1.34778-38.39059 19.66232-39.36387-19.816 32.61808-.92176-79.573-.00423-.26483-.00317.2606-.4488 62.73791-18.78843-25.10244 18.80506 30.50606.08719 34.362-17.43291-33.18692 17.44254 38.23878.04823 19.107-25.32288-46.20808 25.34285 52.87363z" fill="#e2e2e2" transform="translate(-156 -219.73719)"/><path d="m181.81131 674.67584-15.79541-25.0667 15.80273 27.79745.00847 2.85622q1.6903-.01975 3.34649-.12959l-1.28834-36.6912.01694-.2836-.029-.05415-.12267-3.46707 16.51548-27.47309-16.53253 24.87667-.04946.73435-.97323-27.72164 14.19806-28.42444-14.309 23.55334-.6656-57.45927-.00305-.19123-.00229.18817-.32408 45.30272-13.567-18.12634 13.579 22.02826.063 24.81262-12.58821-23.9641 12.59516 27.612.03484 13.79707-18.28561-33.36659 18.29994 38.17977z" fill="#e2e2e2" transform="translate(-156 -219.73719)"/><path d="m1013.94505 672.44322-21.87443-34.71387 21.88456 38.49557.01173 3.95547q2.34084-.02736 4.63443-.17946l-1.78418-50.81218.02346-.39275-.04019-.075-.16989-4.80142 22.87164-38.04637-22.89523 34.4507-.0685 1.017-1.34778-38.39059 19.66231-39.36387-19.816 32.61808-.92176-79.573-.00422-.26483-.00317.2606-.44881 62.73791-18.78843-25.10244 18.80506 30.50606.0872 34.362-17.43291-33.18692 17.44253 38.23878.04824 19.107-25.32289-46.20808 25.34285 52.87363z" fill="#e2e2e2" transform="translate(-156 -219.73719)"/><path d="m420.71394 615.03256h118v5h-118z" fill="#009c88" transform="matrix(-1 -0 0 -1 803.42788 1015.32794)"/><path d="m414.71394 610.03256h118v5h-118z" fill="#009c88" transform="matrix(-1 -0 0 -1 791.42788 1005.32794)"/><path d="m421.71394 605.03256h118v5h-118z" fill="#009c88" transform="matrix(-1 -0 0 -1 805.42788 995.32794)"/><path d="m433.71394 600.03256h118v5h-118z" fill="#009c88" transform="matrix(-1 -0 0 -1 829.42788 985.32794)"/><path d="m333.31299 577.93732h4.09697v29.08849h-4.09697z" fill="#3f3d56" transform="matrix(-1 -0 0 -1 514.72295 965.22594)"/><path d="m407.83085 466.88793h4.09697v163.62126h-4.09697z" fill="#3f3d56" transform="matrix(-.37608697 -.92658437 .92658437 -.37608697 -100.38591 915.10754)"/><path d="m257.51902 636.524h35.64365v13.9297h-35.64365z" fill="#3f3d56" transform="matrix(-1 -0 0 -1 394.6817 1067.24052)"/><path d="m260.7966 648.81492h175.76006v15.56849h-175.76006z" fill="#3f3d56" transform="matrix(-1 -0 0 -1 541.35326 1093.46114)"/><path d="m133.68 436.862h42.199v-53.056h-31.547l-10.652 26.759z" fill="#e2e2e2"/><path d="m307.29722 606.82096h18.02667v18.02667h-18.02667z" fill="#fff" transform="matrix(-1 -0 0 -1 476.62112 1011.93141)"/><path d="m137.777 405.315h11.472v-18.026h-4.917z" fill="#fff"/><path d="m320.40753 635.09006h4.09697v7.78425h-4.09697z" fill="#3f3d56" transform="matrix(-1 -0 0 -1 488.91203 1058.22719)"/><path d="m297.66934 618.49733h.20485a3.89212 3.89212 0 0 1 3.89212 3.89212 3.89212 3.89212 0 0 1 -3.89212 3.89212h-.20485a0 0 0 0 1 0 0v-7.78425a0 0 0 0 1 0 .00001z" fill="#3f3d56" transform="matrix(-1 0 -0 -1 443.43566 1025.04172)"/><path d="m450.07667 648.81492h.20485a3.89212 3.89212 0 0 1 3.89212 3.89212 3.89212 3.89212 0 0 1 -3.89212 3.89212h-.20485a0 0 0 0 1 0 0v-7.78425a0 0 0 0 1 0 .00001z" fill="#3f3d56" transform="matrix(-1 0 0 -1 748.25029 1085.6769)"/><path d="m273.29236 648.75613a20.2704 20.2704 0 0 0 -15.75558 7.843h-8.00685l7.78425-21.68366 36.25819-7.151-1.02424 28.83466h-3.50013a20.27042 20.27042 0 0 0 -15.75564-7.843z" fill="#e2e2e2" transform="translate(-156 -219.73719)"/><circle cx="116.88267" cy="441.98319" fill="#3f3d56" r="17.82182"/><circle cx="116.88267" cy="441.98319" fill="#e2e2e2" r="9.37991"/><circle cx="277.89363" cy="444.03168" fill="#3f3d56" r="15.56849"/><circle cx="277.89363" cy="444.03168" fill="#e2e2e2" r="8.19394"/><path d="m330.64996 596.16884h8.60364v62.06911h-8.60364z" fill="#3f3d56" transform="matrix(-1 -0 0 -1 513.90356 1034.6696)"/><path d="m330.64996 646.97128h123.72853v3.68727h-123.72853z" fill="#3f3d56" transform="matrix(-1 -0 0 -1 629.02844 1077.89265)"/><path d="m299.30813 625.87188h4.09697v1.63879h-4.09697z" fill="#3f3d56" transform="matrix(-1 -0 0 -1 446.71323 1033.64536)"/><path d="m480.39425 620.00189a.40971.40971 0 0 1 -.10422-.31848l5.65034-53.43206a.40987.40987 0 0 1 .40569-.36669h.0018a.40985.40985 0 0 1 .4071.36309l6.11104 53.32125a.40975.40975 0 0 1 -.4033.4563l-11.76139.11083h-.0038a.40928.40928 0 0 1 -.30326-.13424zm5.97-49.96645-5.211 49.27688 10.84675-.10202z" fill="#3f3d56" transform="translate(-156 -219.73719)"/><path d="m255.88024 635.70461h.20485a3.89212 3.89212 0 0 1 3.89212 3.89212 3.89212 3.89212 0 0 1 -3.89212 3.89212h-.20485a0 0 0 0 1 0 0v-7.78425a0 0 0 0 1 0 .00001z" fill="#3f3d56" transform="matrix(.93533677 .35375858 -.35375858 .93533677 86.94131 -269.62329)"/><path d="m484.49122 516.07305h4.09697v59.81578h-4.09697z" fill="#3f3d56" transform="matrix(-1 -0 0 -1 817.07942 872.2247)"/><circle cx="179.36148" cy="359.01953" fill="#3f3d56" r="5.73576"/><path d="m343.71394 642.03256h118v5h-118z" fill="#009c88" transform="matrix(-1 -0 0 -1 649.42788 1069.32794)"/><path d="m350.71394 637.03256h118v5h-118z" fill="#009c88" transform="matrix(-1 -0 0 -1 663.42788 1059.32794)"/><path d="m345.71394 633.03256h118v5h-118z" fill="#009c88" transform="matrix(-1 -0 0 -1 653.42788 1051.32794)"/><path d="m352.71394 628.03256h118v5h-118z" fill="#009c88" transform="matrix(-1 -0 0 -1 667.42788 1041.32794)"/><path d="m538.33725 341.97939a15.59567 15.59567 0 0 1 10.23657 3.81414 15.60631 15.60631 0 0 1 6.88715-.30262 15.65993 15.65993 0 0 1 28.55484 8.887h-60.99694a15.66484 15.66484 0 0 1 15.31838-12.39852z" fill="#e2e2e2" transform="translate(-156 -219.73719)"/><path d="m446.57156 391.32748a14.74417 14.74417 0 0 1 9.67768 3.6059 14.75453 14.75453 0 0 1 6.51113-.2861 14.80494 14.80494 0 0 1 26.99582 8.40174h-57.66666a14.80958 14.80958 0 0 1 14.48203-11.72154z" fill="#e2e2e2" transform="translate(-156 -219.73719)"/><path d="m354.82419 309.93539a15.34075 15.34075 0 0 1 10.06927 3.75181 15.35133 15.35133 0 0 1 6.77459-.29768 15.404 15.404 0 0 1 28.08814 8.7417h-60a15.40882 15.40882 0 0 1 15.068-12.19583z" fill="#e2e2e2" transform="translate(-156 -219.73719)"/><path d="m750.99875 464.92273v124.90576h48.57425v-126.64062l-11.27588.40271v-25.55737h-8.17871l-1.34766-56.60376c3.30029-2.15052 5.62305-7.25818 5.62305-13.222a21.66875 21.66875 0 0 0 -.59375-5.084 10.4004 10.4004 0 0 0 1.12012-12.66773 10.40734 10.40734 0 1 0 13.4873-15.85144 10.40972 10.40972 0 1 0 -14.01367-9.767c0 .15247.00488.30371.01123.45435a10.41549 10.41549 0 0 0 -13.33789 8.38257 10.409 10.409 0 1 0 -7.48535 19.1272c-.002.07556-.00586.15051-.00586.22656a50.59934 50.59934 0 0 0 3.67627 8.43457 21.02593 21.02593 0 0 0 -1.07373 6.74487c0 5.96387 2.32226 11.07153 5.62255 13.222l-1.34765 56.60376h-8.17822v26.48674zm30.332-119.26843.02686.00061c.15039 0 .29931-.00488.44775-.01123q.14063.46143.32178.90356a10.45284 10.45284 0 0 0 -.79636-.89294z" fill="#e2e2e2" transform="translate(-156 -219.73719)"/><path d="m724.25381 508.14821h147.45827v170.58898h-147.45827z" fill="#3f3d56" transform="matrix(-1 -0 0 -1 1439.96588 967.14821)"/><path d="m778.10499 644.04112h39.75591v34.69606h-39.75591z" fill="#e2e2e2" transform="matrix(-1 -0 0 -1 1439.96588 1103.04112)"/><path d="m675.11058 283.692c-.00282.126-.00953.2509-.00953.37748a17.2926 17.2926 0 0 0 5.26 12.43748 17.32924 17.32924 0 0 0 .86719 1.62029 35.02934 35.02934 0 0 0 -1.79014 11.24144c0 13.17395 6.796 23.85355 15.17953 23.85355s15.17952-10.6796 15.17952-23.85355a36.10523 36.10523 0 0 0 -.98931-8.47345 17.33406 17.33406 0 0 0 1.86674-21.11261 17.34558 17.34558 0 1 0 22.47882-26.41915 17.34962 17.34962 0 1 0 -23.35625-16.27825c0 .254.00847.506.01906.75729a17.3592 17.3592 0 0 0 -22.23 13.97086 17.34835 17.34835 0 1 0 -12.4756 31.87862zm29.62669-11.91071c.25024 0 .49871-.00838.74648-.01888q.23348.76911.53578 1.506a17.38709 17.38709 0 0 0 -1.32708-1.48825z" fill="#e2e2e2" transform="translate(-156 -219.73719)"/><path d="m685.94113 451.76722h17.3501l-.61963-26.02v-.01l-2.27051-95.41a11.09469 11.09469 0 0 1 -11.56982 0l-2.27 95.41v.01z" fill="#009c88" transform="translate(-156 -219.73719)"/><path d="m498.141 250.82v208.18h80.951v-211.07l-18.791.67v-42.59h-43.37v44.14z" fill="#009c88"/><path d="m881.84129 283.692c-.00282.126-.00953.2509-.00953.37748a17.2926 17.2926 0 0 0 5.26 12.43748 17.32924 17.32924 0 0 0 .86719 1.62029 35.02934 35.02934 0 0 0 -1.79014 11.24144c0 13.17395 6.796 23.85355 15.17952 23.85355s15.17953-10.6796 15.17953-23.85355a36.10576 36.10576 0 0 0 -.98931-8.47345 17.33406 17.33406 0 0 0 1.86674-21.11261 17.34558 17.34558 0 1 0 22.47881-26.41915 17.34962 17.34962 0 1 0 -23.35624-16.27825c0 .254.00847.506.01906.75729a17.3592 17.3592 0 0 0 -22.23 13.97086 17.34835 17.34835 0 1 0 -12.4756 31.87862zm29.62671-11.91072c.25024 0 .49871-.00838.74648-.01888q.23347.76911.53577 1.506a17.38528 17.38528 0 0 0 -1.32707-1.48825z" fill="#e2e2e2" transform="translate(-156 -219.73719)"/><path d="m892.67428 451.76711h17.348l-2.89128-121.43622a17.10079 17.10079 0 0 1 -11.56535 0z" fill="#009c88" transform="translate(-156 -219.73719)"/><path d="m704.871 250.82v208.18h80.96v-211.07l-6.65.24-12.15.43v-42.59h-43.37v44.14z" fill="#009c88"/><g fill="#fff"><path d="m819.98294 528.73719h20v20h-20z" transform="matrix(-1 -0 0 -1 1503.96588 857.73719)"/><path d="m787.98294 528.73719h20v20h-20z" transform="matrix(-1 -0 0 -1 1439.96588 857.73719)"/><path d="m755.98294 528.73719h20v20h-20z" transform="matrix(-1 -0 0 -1 1375.96588 857.73719)"/><path d="m819.98294 560.73719h20v20h-20z" transform="matrix(-1 -0 0 -1 1503.96588 921.73719)"/><path d="m787.98294 560.73719h20v20h-20z" transform="matrix(-1 -0 0 -1 1439.96588 921.73719)"/><path d="m755.98294 560.73719h20v20h-20z" transform="matrix(-1 -0 0 -1 1375.96588 921.73719)"/><path d="m819.98294 592.73719h20v20h-20z" transform="matrix(-1 -0 0 -1 1503.96588 985.73719)"/><path d="m787.98294 592.73719h20v20h-20z" transform="matrix(-1 -0 0 -1 1439.96588 985.73719)"/><path d="m755.98294 592.73719h20v20h-20z" transform="matrix(-1 -0 0 -1 1375.96588 985.73719)"/><path d="m684.61759 520.73719h20v20h-20z" transform="matrix(-1 -0 0 -1 1233.23517 841.73719)"/><path d="m684.61759 552.73719h20v20h-20z" transform="matrix(-1 -0 0 -1 1233.23517 905.73719)"/><path d="m684.61759 584.73719h20v20h-20z" transform="matrix(-1 -0 0 -1 1233.23517 969.73719)"/><path d="m684.61759 616.73719h20v20h-20z" transform="matrix(-1 -0 0 -1 1233.23517 1033.73719)"/><path d="m891.18137 520.73719h20v20h-20z" transform="matrix(-1 -0 0 -1 1646.36273 841.73719)"/><path d="m891.18137 552.73719h20v20h-20z" transform="matrix(-1 -0 0 -1 1646.36273 905.73719)"/><path d="m891.18137 584.73719h20v20h-20z" transform="matrix(-1 -0 0 -1 1646.36273 969.73719)"/><path d="m891.18137 616.73719h20v20h-20z" transform="matrix(-1 -0 0 -1 1646.36273 1033.73719)"/></g><path d="m0 458.29537h888v2h-888z" fill="#3f3d56"/></svg>