<svg height="387" style="fill:none;fill-rule:evenodd;clip-rule:evenodd;stroke-linecap:round;stroke-linejoin:round;stroke-miterlimit:1.5" viewBox="0 0 387 387" width="387" xmlns="http://www.w3.org/2000/svg"><g fill="none" stroke-linecap="round" stroke-linejoin="round" stroke-miterlimit="4" stroke-width="2"><g stroke="#ce9e07"><path d="m45.9209 21.6506c-11.3648 6.4502-23.7037 9.4334-35.9209 9.4334l.0001 77.1595c2.3646 0 4.7291 0 7.0936-.1183l6.5025 30.9849c6.1478-.4731 12.2364-1.2418 18.3842-2.3653l-1.4778-31.5761c5.0246-1.0644 9.9902-2.3653 14.9557-3.9618l14.2463 28.2056c5.7931-2.0104 11.468-4.3757 17.1428-7.0366l-9.5763-30.0979c2.3054-1.1826 4.5517-2.3652 6.798-3.6661s4.4335-2.6018 6.6207-4.0209l21.0444 23.5342c5.1428-3.4887 10.0492-7.2731 14.7783-11.1758l-17.0247-26.6091c2.069-1.8922 4.138-3.7844 6.0887-5.7949-18.1541-18.1597-36.1758-36.4503-54.3944-54.5454-4.4647 4.4345-9.4977 8.3852-15.2207 11.6103z" transform="translate(182.999878 234)"/><path d="m127.6946 31.0909c-18.7645 0-37.0467-7.4747-50.5877-21.0909-18.1917 18.2928-36.6302 36.2997-54.8704 54.5454 1.6551 1.6557 3.3694 3.3114 5.0837 4.9079l-17.3202 26.4909c4.7291 4.0209 9.5764 7.8644 14.601 11.3532l21.3399-23.416c4.3153 2.8383 8.7488 5.4401 13.3596 7.7462l-9.8719 30.0387c5.5566 2.6609 11.2906 5.0262 17.0837 7.1549l14.4828-28.0874c4.9064 1.5965 9.8719 2.9566 14.8965 4.0801l-1.7734 31.517c6.0887 1.1235 12.1774 2.0104 18.3252 2.5426l6.7389-30.9257c2.7783.1774 5.5566.2366 8.3941.2366 0-25.698.0378-51.3955.0378-77.0935z" transform="translate(65.305481 234)"/><path d="m10 61.19.0404.0408-.0404.0407zm21.0909-51.19c0 18.9993-7.46 37.5109-21.0505 51.2308 18.059 18.202 36.3486 36.1807 54.4769 54.3146 1.6551-1.6557 3.3103-3.3705 4.9064-5.0853l26.4827 17.3255c4.0197-4.7305 7.8621-9.5793 11.3498-14.6055l-23.4089-21.3464c2.8375-4.3165 5.4384-8.7514 7.7439-13.3637l30.0295 9.875c2.6601-5.5584 5.0246-11.2941 7.1527-17.089l-28.0788-14.4872c1.5961-4.9079 2.9557-9.8749 4.0788-14.9011l31.5074 1.774c1.1232-6.0905 2.0099-12.1811 2.5419-18.3307l-30.9163-6.741c.1774-2.7792.2365-5.5584.2365-8.3967-25.688 0-51.3628-.1733-77.052-.1733z" transform="translate(233.999939 183)"/><path d="m117.916 10.004109c0 12.2171 2.9832 24.556 9.4334 35.9208l.0403.0406c3.2251 5.723 7.1758 10.7559 11.6103 15.2207-18.0841 18.2075-36.3147 36.2733-54.4581 54.4223-2.0099-1.9514-3.9015-4.0209-5.7931-6.0905l-26.601 17.0298c-3.9015-4.7305-7.6847-9.6384-11.1724-14.7828l23.5271-21.0508c-1.4188-2.1879-2.7192-4.3757-4.0197-6.6227s-2.4828-4.494-3.6651-6.8001l-30.0886 9.5793c-2.6601-5.6766-5.0247-11.3533-7.0345-17.1481l28.197-14.2507c-1.596-4.967-2.8965-9.9341-3.9606-14.9602l-31.5665 1.4783c-1.1231-6.1497-1.8916-12.2402-2.3645-18.3899l30.9754-6.5044c-.1183-2.3652-.1183-4.7304-.1183-7.0956 25.6863-.0001 51.3726.004 77.0589.004z" transform="translate(3 182.99585)"/><path d="m64.4581 20.9393c2.0098 1.9513 3.9014 4.0209 5.7931 6.0905l26.601-17.0298c3.9014 4.7305 7.6847 9.6384 11.1724 14.7828l-23.5271 21.0508c1.4187 2.1879 2.7192 4.3757 4.0197 6.6227s2.4828 4.494 3.665 6.8001l30.0887-9.5793c2.6601 5.6766 5.0246 11.3533 7.0345 17.1481l-28.1971 14.2507c1.5961 4.967 2.8966 9.934 3.9606 14.9602l31.5665-1.4783c1.1232 6.1497 1.8916 12.2402 2.3645 18.3899l-30.9753 6.5044c.1182 2.3648.1182 4.7296.1182 7.0944v.0014c-25.6867 0-51.3722-.055-77.0588-.055 0-12.2171-2.9832-24.556-9.4334-35.9208l-.0403-.0406c-3.2251-5.723-7.1758-10.756-11.6103-15.2207 18.0774-18.2007 36.3218-36.2297 54.4581-54.3715z" transform="translate(234.000122 66.50708)"/><path d="m84.3054 22.2402c-1.6551 1.6557-3.3103 3.3705-4.9064 5.0853l-26.4827-17.3255c-4.0197 4.7305-7.8621 9.5793-11.3498 14.6054l23.4089 21.3465c-2.8375 4.3165-5.4384 8.7514-7.7439 13.3636l-30.0295-9.8749c-2.6601 5.5584-5.0247 11.2941-7.1527 17.089l28.0788 14.4871c-1.5961 4.908-2.9557 9.875-4.0788 14.9011l-31.5074-1.7739c-1.1232 6.0905-2.0099 12.1811-2.5419 18.3307l30.9163 6.741c-.1774 2.7792-.2365 5.5583-.2365 8.3967 25.6662 0 51.326.1223 76.9928.1223 0-18.7647 7.46-37.0477 21.0506-50.5983l.0403.0402v-.0804l-.0403.0402c-18.3018-18.219-36.1357-36.6085-54.4178-54.8961z" transform="translate(3.236542 65.265137)"/><path d="m60.6694 138.7057c-13.5505-13.5905-31.8335-21.0505-50.5982-21.0505 0-25.6559-.0712-51.3098-.0712-76.966 2.8374 0 5.6158.0591 8.3941.2365l6.7389-30.9257c6.1478.5322 12.2365 1.4192 18.3251 2.5426l-1.7734 31.5171c5.0247 1.1234 9.9902 2.4835 14.8966 4.08l14.4827-28.0874c5.7931 2.1288 11.5271 4.494 17.0838 7.1549l-9.8719 30.0387c4.6108 2.3062 9.0443 4.9079 13.3596 7.7463l21.3399-23.4161c5.0246 3.4888 9.8719 7.3323 14.601 11.3533l-17.3202 26.4908c1.7143 1.5966 3.4286 3.2522 5.0837 4.9079z" transform="translate(182.928772 3.253662)"/><path d="m126.4533 117.916c-12.2171 0-24.5561 2.9832-35.9209 9.4334l-.0406.0403c-5.723 3.2251-10.756 7.1758-15.2207 11.6103-54.3351-54.4354-54.3351-54.4354-54.3351-54.4354 1.9507-2.0104 4.0197-3.9026 6.0887-5.7948l-17.0247-26.6092c4.7291-3.9026 9.6355-7.687 14.7783-11.1758l21.0444 23.5343c2.1872-1.4192 4.3744-2.72 6.6207-4.0209s4.4926-2.4835 6.798-3.6662l-9.5764-30.0978c5.6749-2.6609 11.3498-5.0262 17.1429-7.0367l14.2463 28.2057c4.9655-1.5966 9.9311-2.8974 14.9557-3.9618l-1.4778-31.5761c6.1477-1.1235 12.2364-1.8922 18.3842-2.3653l6.5025 30.9848c2.3645-.1182 4.7291-.1182 7.0936-.1182 0 25.6836-.0591 51.3659-.0591 77.0494z" transform="translate(66.546722 3)"/></g><path d="m15.25 28.320999v15.429001c0 .828426.671573 1.5 1.5 1.5h19.5c.828426 0 1.5-.671574 1.5-1.5v-15.429001m-27 4.179001 15.75-14.625 15.75 14.625m-18 3h4.5c.828428 0 1.5.671574 1.5 1.5v8.25h-7.5v-8.25c0-.828426.671572-1.5 1.5-1.5zm12.300003-13.821001c-.03376-1.212641-1.008858-2.18774-2.221504-2.221499m6.571503 2.307c-.101277-3.635443-3.024559-6.558729-6.660004-6.66m6.660004 6.66c-.101277-3.635443-3.024559-6.558729-6.660004-6.66m11.010002 6.7455c-.170273-6.058429-5.041573-10.929726-11.099998-11.1m11.099998 11.1c-.170273-6.058429-5.041573-10.929726-11.099998-11.1" stroke="#17b0e3" transform="translate(123 63)"/><path d="m23.7085 16.579c1.452627-.489805 2.302298-1.995977 1.970245-3.492565-.332052-1.496587-1.738992-2.50208-3.262462-2.331567-1.52347.170511-2.673308 1.462166-2.666283 2.995132.004065.270776.044939.539742.1215.7995-.1665-.015-.327-.0495-.4965-.0495-2.142563-.01046-4.103152 1.202943-5.049582 3.12517-.946431 1.922226-.712661 4.216045.602082 5.907831-2.348395.16111-4.171042 2.113085-4.171042 4.466999s1.822647 4.305889 4.171042 4.466999c-1.314743 1.691784-1.548513 3.985603-.602082 5.907833.94643 1.922226 2.907019 3.135628 5.049582 3.125168.1695 0 .33-.0345.4965-.0495-.445742 1.576832.456215 3.219601 2.025906 3.689869 1.569688.470265 3.226322-.405975 3.720998-1.968143.494677-1.562172-.355634-3.232258-1.909904-3.751225m8.583-22.842001c-1.452627-.489805-2.302298-1.995977-1.970245-3.492565.332052-1.496587 1.738994-2.50208 3.262462-2.331567 1.523468.170511 2.67331 1.462166 2.666283 2.995132-.004066.270776-.044941.539742-.121498.7995.1665-.015.326996-.0495.496498-.0495 2.142563-.01046 4.103153 1.202943 5.049583 3.12517.946427 1.922226.712662 4.216045-.602081 5.907831 2.348393.16111 4.17104 2.113085 4.17104 4.466999s-1.822647 4.305889-4.17104 4.466999c1.314743 1.691784 1.548508 3.985603.602081 5.907833-.94643 1.922226-2.90702 3.135628-5.049583 3.125168-.169502 0-.329998-.0345-.496498-.0495.44574 1.576832-.456215 3.219601-2.025906 3.689869-1.56969.470265-3.226324-.405975-3.721-1.968143-.494677-1.562172.355634-3.232258 1.909904-3.751225m-6.5415-25.821001c1.392305-.803848 3.107697-.803848 4.5 0m0 28.800002c-1.392303.803848-3.107695.803848-4.5 0m-2.25-20.400002h9s1.5 0 1.5 1.5v9s0 1.5-1.5 1.5h-9s-1.5 0-1.5-1.5v-9s0-1.5 1.5-1.5m1.5-3v3m6-3v3m-12 9h3m-3-6h3m9 12v-3m-6 3v-3m12-9h-3m3 6h-3" stroke="#3bc482" transform="translate(207 63)"/><path d="m24.641499 38.195503-7.844998-5.640003m3.772499-4.295999 6.4485 4.7805m-15.786-5.214001c.000001 2.583864 2.094636 4.678501 4.6785 4.678501s4.678501-2.094637 4.678501-4.678501-2.094637-4.678499-4.678501-4.678499-4.678499 2.094635-4.678499 4.678499m8.963998-1.876499 7.002001-6.819m-2.1495-4.917001-9.42 8.943m9.282-7.701c-.000391 2.26271 1.83379 4.097208 4.0965 4.097208 2.262709 0 4.09689-1.834498 4.096501-4.097208.000389-2.262711-1.833792-4.097207-4.096501-4.097207-2.26271 0-4.096891 1.834496-4.0965 4.097207m7.889999 1.548 3.711003 3.796499c.773113.789622.790275 2.047077.039001 2.857502v-.000002c-.385822.415428-.925053.654564-1.491966.66165-.56691.007086-1.11195-.218496-1.508034-.624147l-4.080004-4.168501m-17.846999 25.115997h33.000001m-19.981502-3.638996v-4.083c.044107-2.379601 1.985742-4.285584 4.365751-4.285584 2.38001 0 4.321646 1.905983 4.365751 4.285584v4.02m-18.213001-13.363502c0 .414215.335787.75.75.75s.75-.335785.75-.75c0-.414214-.335787-.75-.75-.75s-.75.335786-.75.75m13.0965 9.310497c0 .414219.335785.75.75.75.414213 0 .75-.335781.75-.75 0-.414211-.335787-.75-.75-.75-.414215 0-.75.335789-.75.75m-4.488001 4.116005h10.405501c.828426 0 1.5.67157 1.5 1.5v2.138996h-13.405501v-2.138996c0-.82843.671574-1.5 1.5-1.5zm12.331499-20.640001c.284302-.35606.688439-.596518 1.137002-.676501 1.862014-.340774 3.779228.162552 5.23373 1.374012 1.454506 1.211458 2.296223 3.00605 2.297771 4.898989 0 1.035532-.839466 1.875-1.875 1.875-1.035537 0-1.875-.839468-1.875-1.875-.001083-.782385-.350506-1.523657-.953331-2.022387-.602829-.498729-1.396431-.703113-2.165168-.557613-.286274.050598-.580353.034687-.859501-.046499m-1.357502.805498c.063316.353697.023746.718134-.113999 1.050001-.307838.719452-.279041 1.53867.07856 2.23473s1.006798 1.196546 1.770943 1.365269c1.011505.222847 1.650844 1.223491 1.427994 2.235-.222844 1.011511-1.223488 1.650847-2.234997 1.428-1.846581-.4095-3.416241-1.617295-4.285214-3.297304-.868971-1.68001-.947645-3.659005-.214786-5.402697.104366-.252936.263119-.479801.465-.664497" stroke="#93c131" transform="translate(63 123)"/><path d="m15.25 30.380501h10.5v10.5h-10.5zm25.5 10.5h-10.5v-10.5h10.5zm-25.5-25.500001h10.5v10.500001h-10.5zm25.5 10.500001h-10.5v-10.500001h10.5zm-12.749714 5.271934 7.424622 7.424622-7.424624 7.424621-7.424621-7.424621zm-3.02285-3.021648-7.424622 7.424618-7.424619-7.424618 7.424621-7.424622zm3.022905-3.02285-7.424621-7.42462 7.424621-7.424622 7.424624 7.42462zm3.021595 3.022905 7.424624-7.424623 7.424618 7.424621-7.424618 7.424626z" stroke="#e3cd09" transform="translate(267 124)"/><path d="m44.714287 26.714285h-33.428573v12.857141c0 1.420163 1.151268 2.571431 2.571428 2.571431h7.714286c.782414-.003609 1.520621-.363247 2.005715-.977143l3.368572-4.191429c.244024-.304161.612904-.48114 1.002857-.48114.389952 0 .758831.176979 1.002855.48114l3.420002 4.191429c.485093.613896 1.223298.973534 2.005711.977143h7.714287c1.420162 0 2.57143-1.151268 2.57143-2.571431zm0 0-6.968575-11.571428c-.46302-.780941-1.303539-1.259841-2.211426-1.26h-15.068571c-.907888.000159-1.748407.479059-2.211429 1.26l-6.968572 11.571428" stroke="#dd8433" transform="translate(63 207)"/><path d="m12.256 15.25h31.500001s1.5 0 1.5 1.5v22.5s0 1.5-1.5 1.5h-31.500001s-1.5 0-1.5-1.5v-22.5s0-1.5 1.5-1.5m4.494 18 3.856501-6.4275c.135454-.226263.379787-.364763.643499-.364763s.508045.1385.643499.364763l3.319502 5.527498c.124924.20842.343081.3434.585346.362175.242264.018773.478611-.080989.634152-.267673l2.497501-3c.142496-.170876.353506-.269663.576001-.269663.222494 0 .433502.098787.575998.269663l2.4825 2.979c.157326.188633.397049.288277.641731.266739.244686-.021538.463318-.161522.58527-.374741l5.4585-9.565498" stroke="#ce9e07" transform="translate(267 207)"/><path d="m37.779999 26.5c-.016529 5.389626-4.390347 9.750027-9.779997 9.75-5.424116-.090389-9.761915-4.535294-9.720001-9.960001-.001088-5.185289 4.145794-9.418844 9.33-9.525h.389999c2.593327-.024114 5.088093.992333 6.926155 2.821936 1.838059 1.829603 2.866001 4.319656 2.853844 6.913065zm-10.169998-9.735001c-5.084999 5.505001-5.084999 12.690001 0 19.5m.84-19.5c5.099998 5.505001 5.099998 12.690001 0 19.5m-10.17-9.764999h19.499998m-25.529999-10.845v11.46c.088817 7.75535 5.014565 14.628626 12.33 17.205l1.68.615001c1.122011.419838 2.357989.419838 3.48 0l1.68-.615001c7.315435-2.576374 12.241186-9.44965 12.33-17.204998v-11.460002c-.004459-.915602-.552723-1.740947-1.395-2.1-4.545235-1.898916-9.429284-2.85327-14.355002-2.805-4.925718-.04827-9.809765.906084-14.354998 2.805-.842275.359053-1.390541 1.184398-1.395 2.1z" stroke="#da5da8" transform="translate(123 267)"/><path d="m40.75 31.609001c2.355339-1.08876 3.831764-3.479986 3.749996-6.073501-.028393-1.919186-.836258-3.744252-2.237854-5.055592-1.401592-1.31134-3.276314-1.996122-5.193142-1.896908-1.70911-3.439879-5.228-5.606156-9.069-5.583-5.234215-.070223-9.619875 3.943558-10.012501 9.163498-1.562641-.343565-3.197001.031437-4.453558 1.021866s-2.00297 2.491972-2.033941 4.091636c-.124739 2.338057 1.462808 4.422186 3.75 4.923001m3.75 6.299999 4.5 4.5 4.5-4.5m-4.5 4.5v-13.5m4.5 4.5 4.5-4.5 4.5 4.5m-4.5-4.5v13.5" stroke="#b65edf" transform="translate(207 267)"/></g></svg>