<svg height="413" style="fill:none;fill-rule:evenodd;clip-rule:evenodd;stroke-linecap:round;stroke-linejoin:round;stroke-miterlimit:1.5" viewBox="0 0 762 413" width="762" xmlns="http://www.w3.org/2000/svg"><path d="m10 61.349182 17.645996 12.009216.008026 8.388092-17.622009 12.044007c1.039002 3.169982 1.34198 4.095794 1.876984 5.730499.279022.850281.619995 1.892303 1.160003 3.541595l21.368012-.609192c.731995 1.000489 1.298004 1.774994 1.813995 2.480103.972992 1.329498 1.764984 2.412476 3.144989 4.299988l-7.144989 20.056488c2.061005 1.486999 3.014008 2.175018 3.966004 2.861999.951996.687012 1.903991 1.374024 3.964996 2.862l16.927185-12.994995c2.553711.823028 3.86142 1.245025 5.7883 1.866028l2.226623.716979 6.060486 20.40799 9.795898-.009979 6.020295-20.419007c2.544922-.826995 3.851715-1.251007 5.768615-1.872985.6521-.210999 1.375-.446015 2.241181-.727021l16.952301 12.963013c2.058624-1.492004 3.009399-2.181 3.960113-2.871002.950806-.688996 1.901612-1.377991 3.960114-2.869995l-7.184418-20.041718c.72229-.991577 1.283203-1.761474 1.793305-2.4617.977386-1.341492 1.768707-2.427582 3.152404-4.328186l21.368805.567108c1.067993-3.281525 1.353699-4.159821 1.921906-5.906311.266693-.819794.595581-1.830902 1.096893-3.371796l-17.645508-12.009216-.0083-8.388092 17.621795-12.044007c-1.071594-3.270996-1.36029-4.152587-1.928985-5.889099-.269104-.821685-.600892-1.834778-1.108002-3.382995l-21.367706.609192c-.725983-.992585-1.289307-1.762696-1.801911-2.463288-.978271-1.337188-1.771393-2.421386-3.157074-4.316803l7.144898-20.056091c-2.061493-1.487701-3.013611-2.175018-3.965821-2.862305-.952087-.687286-1.904174-1.374603-3.965698-2.862304l-16.926788 12.995697c-2.525299-.814301-3.832215-1.235596-5.724304-1.845398l-2.290589-.738404-6.060516-20.407287-9.795899.009582-6.020202 20.419312c-3.410889 1.1073-4.597595 1.492187-8.009888 2.599487l-16.952515-12.96228c-2.057983 1.491791-3.009002 2.181-3.959991 2.870086-.950989.689209-1.901001 1.378418-3.959991 2.870118l7.18399 20.041992c-.730988 1.004303-1.296997 1.781189-1.812988 2.488586-.968018 1.329193-1.757996 2.413422-3.132019 4.301209l-21.368988-.567017c-1.032013 3.171204-1.334015 4.098023-1.865998 5.733002-.276001.851013-.615997 1.893921-1.153015 3.545105zm102.016205 16.120422c.019592 19.881897-16.082489 36.015381-35.964508 36.035401-19.881897.019989-36.015686-16.082611-36.035675-35.964508-.019013-19.881897 16.082886-36.0159 35.964783-36.035401 19.881897-.019592 36.015899 16.082489 36.0354 35.964508z" fill="#fbd663" transform="translate(356.001221 254.511719)"/><path d="m10.545303 110.20308c.121003 1.297302.241989 2.594726.545197 5.841308l-.001206.002503 19.4749 2.104492c1.237503 3.970215 1.588501 5.095215 2.462707 7.897308l.806397 2.584992-14.819504 12.821716 1.853104 3.300903c1.265197 2.253693 1.531295 2.727692 3.890197 6.927887l18.646408-6.006195 7.24701 8.244293-8.327515 17.746216c1.678406 1.250183 2.709595 2.01828 3.509308 2.613892 1.691193 1.259613 2.3461 1.747406 5.894989 4.39151l14.593597-13.07901c2.375824 1.091613 3.680298 1.691101 4.984803 2.290619 1.304504.599487 2.6091 1.198974 4.984802 2.290496l-.39679 19.603394c3.179474.714508 4.449585.999786 5.719788 1.2854 1.269897.285492 2.539886.571198 5.718292 1.286194l8.016815-17.889801c2.643097.030304 4.081208.046906 5.532288.063599 1.420013.016388 2.852325.032898 5.437897.0625l7.604217 18.069702c4.846985-.972107 5.277985-1.058685 7.993012-1.60379.863983-.173523 1.958984-.393402 3.500976-.703003l.054993-19.607117c2.400024-1.03659 3.718017-1.605896 5.036011-2.175079 1.317993-.569214 2.635986-1.138397 5.036987-2.175019l14.289001 13.411103c2.65802-1.885803 3.720032-2.639191 4.781006-3.392792 1.062012-.753601 2.124024-1.507294 4.782013-3.39389l-7.917023-17.933625c1.772034-1.924591 2.744019-2.981201 3.717041-4.03778.972962-1.056611 1.944977-2.113221 3.71698-4.037812l18.502991 6.43451c1.661987-2.806702 2.325989-3.927308 2.98999-5.04889.663025-1.1203 1.327027-2.241516 2.988038-5.045105l-14.52002-13.160003c.835999-2.479218 1.296021-3.840515 1.755005-5.201905.458984-1.361297.917999-2.722686 1.755005-5.201812l19.518005-1.654908c.377991-3.239074.528992-4.533294.679993-5.827484.151001-1.294281.302002-2.588501.679992-5.827606l-18.611999-6.111084c-.244019-2.605316-.377014-4.035919-.510986-5.466614-.132996-1.430694-.267029-2.861297-.51001-5.466308l17.158996-9.458985c-.970001-3.110992-1.358001-4.355011-1.746002-5.597992-.389007-1.244018-.776001-2.488006-1.748016-5.60202l-19.485962 1.994019c-1.282043-2.28302-1.986023-3.536011-2.690002-4.790009-.703003-1.251007-1.406006-2.503021-2.684998-4.781006l11.83197-15.626007-2.407989-2.738983c-1.785981-2.031998-2.100006-2.389007-5.334992-6.070999l-16.992004 9.755997c-1.151001-.858002-2.018006-1.503998-2.755005-2.054001-1.950012-1.451996-3.002014-2.236008-6.044983-4.503006l4.458984-19.093002-10.653015-4.895997-11.557983 15.831009c-2.550995-.574005-3.951996-.889007-5.35199-1.20401-1.401001-.315002-2.802002-.629989-5.353027-1.203003l-3.684296-19.257995-11.721283-.134995-4.123901 19.168991c-2.563507.515-3.970917.797013-5.378418 1.080002-1.407379.283005-2.814881.565003-5.378388 1.080002l-11.191101-16.093002-10.763092 4.649002 4.018982 19.190002c-2.132385 1.513001-3.303406 2.343994-4.474396 3.175995-1.17099.831009-2.34201 1.662003-4.474395 3.176026l-16.762299-10.14502c-2.207901 2.397995-3.090103 3.356003-3.972198 4.313995-.882202.958008-1.764298 1.917008-3.972199 4.314011l11.469299 15.895004c-1.335113 2.253968-2.067306 3.48999-2.800399 4.72699-.731201 1.234985-1.463105 2.470001-2.79451 4.718018l-19.434998-2.444031c-1.277389 3.786011-1.614792 4.786011-2.164001 6.414001-.34729 1.029022-.77919 2.309021-1.586701 4.703003l16.9357 9.85199c-.303192 2.599029-.469788 4.026001-.636398 5.453125-.166489 1.427185-.3331 2.854492-.636292 5.453491l-18.748703 5.680206c.303207 3.246613.424194 4.544007.545303 5.841279zm127.085678-8.874176c0 19.881896-16.118988 36-36.000488 36-19.881897 0-36-16.118104-36-36 0-19.881897 16.118103-35.999909 36-35.999909 19.8815 0 36.000488 16.118012 36.000488 35.999909z" fill="#ceb052" transform="translate(204 146.999268)"/><path d="m10.004699 89.680802c.002289-2.045502.003388-3.014893.008209-6.960098l.00058.003906 22.092011-5.951706c.599212-2.0336.983887-3.339005 1.368683-4.644303.384704-1.305404.769409-2.610702 1.368622-4.644302l-15.325501-17.008499c1.0112-1.570297 1.661285-2.579697 2.182983-3.389694 1.096924-1.703003 1.626404-2.525208 3.751404-5.826111l21.804016 6.947815 1.755677-1.518112c1.93222-1.670594 3.032013-2.621491 5.565124-4.812897l-3.708221-22.598801c2.64032-1.202591 3.815124-1.737503 4.993011-2.273697 1.173004-.534103 2.348999-1.069503 4.978516-2.267105l14.593292 17.642609c2.100281-.299011 3.447479-.490997 4.795898-.683106 1.344178-.191604 2.689606-.3833 4.7836-.681305l9.087403-21.015396c2.864288.416809 4.142395.602509 5.419891.788208 1.278412.185791 2.556305.371491 5.422791.78859l2.749023 22.736114c2.515289 1.154496 3.854279 1.768799 5.553284 2.548386.903015.414108 1.907013.874802 3.243011 1.4879l18.996979-12.758194c3.520996 3.060898 3.901001 3.391296 6.196014 5.388.556.483399 1.223999 1.064301 2.075989 1.805298l-9.967987 20.611206 5.220978 8.155091 22.875-.451188c.320007 1.095688.570007 1.952301.778015 2.664002.846985 2.901398.991028 3.394195 2.29602 7.862091l-19.520019 11.940704-.010986 9.685303 19.490966 11.999298c-.818969 2.778793-1.18396 4.018494-1.549011 5.258194-.36499 1.240006-.730957 2.479004-1.549988 5.259003l-22.873993-.520005c-1.147979 1.781998-1.884002 2.926011-2.621002 4.071-.735992 1.144012-1.472992 2.287994-2.620971 4.070007l9.919006 20.640015-8.289032 7.168975-18.96698-12.815002c-2.205017 1.003998-3.507019 1.597015-4.938995 2.249023-1.072022.488984-2.216614 1.00998-3.867524 1.761994l-2.803192 22.72699-10.845886 1.544006-9.036713-21.041016c-1.840698-.267975-3.102691-.451996-4.294403-.625-1.522186-.221985-2.929504-.425995-5.281402-.767975l-14.63501 17.598999c-2.632385-1.208007-3.806397-1.747009-4.980499-2.28601-1.173981-.539002-2.348084-1.076996-4.9805-2.285004l3.762024-22.588013-7.305908-6.353973-21.820495 6.882996-1.383698-2.162018c-1.730408-2.703003-1.961609-3.065003-4.528015-7.071991l15.367004-16.962998c-1.175293-4.021698-1.51889-5.1987-2.672485-9.150299l-.042908-.147003-22.078399-6.018906zm113.475312-1.346802c0-19.881989-16.1185-36-36.000428-36-19.881988 0-36 16.117996-36 36 0 19.881897 16.118012 36.000015 36 36.000015 19.881928 0 36.000428-16.118118 36.000428-36.000015z" fill="#a18a41" transform="translate(357.000122 76.146484)"/><path d="m10 93.720596 17.633697-12.026596v-8.388l-17.633697-12.026703c1.0354-3.170998 1.337707-4.097199 1.87149-5.732399.277618-.850494.617798-1.892799 1.156403-3.542694l21.368194.588096c.730927-1.001197 1.296723-1.776199 1.811798-2.481803.971314-1.330498 1.762604-2.414299 3.140717-4.303093l-7.164704-20.049401c2.059998-1.489006 3.011506-2.178001 3.962891-2.866005.951416-.687996 1.902924-1.375999 3.962921-2.865997l16.939575 12.978996c2.552918-.825996 3.86023-1.249 5.786499-1.871994l2.225922-.720001 6.040405-20.413002h9.795899l6.040283 20.413002c2.545807.823998 3.852997 1.247002 5.770508 1.866997.652405.210998 1.375397.444999 2.241913.724998l16.93927-12.978996c2.059997 1.489998 3.012024 2.178001 3.963012 2.865997.951996.688004 1.903016 1.376999 3.963013 2.866005l-7.165008 20.049401c.723999.990898 1.285003 1.760192 1.79599 2.459899.979003 1.3405 1.770996 2.425896 3.157012 4.325097l21.368012-.588196c1.070984 3.280494 1.357971 4.158493 1.927978 5.904396.267029.819603.596985 1.830398 1.100007 3.370697l-17.634003 12.026703v8.388l17.634003 12.026703c-1.067994 3.272095-1.355988 4.1539-1.923005 5.890991-.268982.8219-.598999 1.835297-1.10498 3.38411l-21.368012-.588211c-.725006.993408-1.287994 1.764007-1.800018 2.465103-.97699 1.338211-1.768982 2.423111-3.152984 4.3199l7.165008 20.049012c-2.059997 1.489792-3.011017 2.177993-3.963013 2.866287-.950988.688202-1.903015 1.376404-3.963012 2.866211l-16.93927-12.979004c-2.524506.816803-3.831025 1.239304-5.722504 1.850998l-2.289917.7406-6.040375 20.4133h-9.795929l-6.040283-20.4133c-3.412018-1.104003-4.59909-1.487701-8.012421-2.591598l-16.939575 12.979004c-2.059997-1.489807-3.011505-2.178009-3.962921-2.866211-.951477-.688294-1.902893-1.376495-3.962891-2.866287l7.164612-20.049012c-.732513-1.003601-1.299225-1.779892-1.815399-2.486801-.969604-1.328201-1.76062-2.411697-3.137024-4.298202l-21.368194.588211c-1.035187-3.170304-1.337586-4.096802-1.871094-5.731201-.27771-.8508-.618012-1.893296-1.156799-3.544007zm102.001007-16.220596c0-19.881897-16.118103-36-36-36s-36 16.118103-36 36 16.117981 36 36 36c19.881897 0 36-16.118103 36-36z" fill="#746330" transform="translate(254.000092 2.5)"/><text fill="#ce9e07" font-family="Arial, Helvetica, sans-serif" font-size="20" transform="translate(62 46)"><tspan dominant-baseline="ideographic" x="12" y="33">Lanzar Plataforma</tspan><tspan dominant-baseline="ideographic" x="88" y="57">Educativa</tspan></text><text fill="#ce9e07" font-family="Arial, Helvetica, sans-serif" font-size="20" transform="translate(536 118)"><tspan dominant-baseline="ideographic" x="12" y="33">Implementar Sistema</tspan><tspan dominant-baseline="ideographic" x="12" y="57">de Proveedores</tspan><tspan dominant-baseline="ideographic" x="12" y="81">Basado en IA</tspan></text><text fill="#ce9e07" font-family="Arial, Helvetica, sans-serif" font-size="20" transform="translate(2 202)"><tspan dominant-baseline="ideographic" x="99" y="33">Mejorar la</tspan><tspan dominant-baseline="ideographic" x="23" y="57">Competitividad del</tspan><tspan dominant-baseline="ideographic" x="130" y="81">Sector</tspan></text><text fill="#ce9e07" font-family="Arial, Helvetica, sans-serif" font-size="20" transform="translate(512 286)"><tspan dominant-baseline="ideographic" x="12" y="33">Fortalecer la</tspan><tspan dominant-baseline="ideographic" x="12" y="57">Coordinación</tspan><tspan dominant-baseline="ideographic" x="12" y="81">Público-Privada</tspan></text><g fill="none" stroke-linecap="butt" stroke-linejoin="miter" stroke-miterlimit="4"><path d="m10.000092 61.349182 17.645508 12.009216.0083 8.388092-17.621795 12.044007c1.038513 3.169982 1.341705 4.095794 1.877105 5.730499.278382.850281.61969 1.892303 1.15979 3.541595l21.367707-.609192c.731903 1.000489 1.298401 1.774994 1.8143 2.480103.972595 1.329498 1.764893 2.412476 3.144806 4.299988l-7.144897 20.056091c2.061493 1.487701 3.01358 2.175018 3.96579 2.862305.952087.687317 1.904205 1.374603 3.965698 2.862304l16.926788-12.995697c2.553711.823517 3.86142 1.244996 5.7883 1.866089l2.226623.717713 6.060486 20.407287 9.795898-.009704 6.020295-20.41919c2.544922-.826202 3.851715-1.250183 5.768615-1.872284.652192-.211609 1.375-.446106 2.241181-.727203l16.952301 12.96228c2.058624-1.491791 3.009399-2.181 3.960113-2.870086.950806-.689209 1.901612-1.378388 3.960114-2.870209l-7.184418-20.041901c.72229-.991577 1.283203-1.761383 1.793305-2.4617.977386-1.341492 1.768707-2.427582 3.152404-4.328186l21.368805.567108c1.067993-3.281525 1.353699-4.159821 1.921906-5.906311.266693-.819794.595581-1.830902 1.096893-3.371796l-17.645508-12.009216-.0083-8.388092 17.621795-12.044007c-1.071594-3.270996-1.36029-4.152587-1.928985-5.889099-.269104-.821685-.600892-1.834778-1.108002-3.382995l-21.367706.609192c-.725983-.992585-1.289307-1.762696-1.801911-2.463288-.978271-1.337188-1.771393-2.421386-3.157074-4.316803l7.144898-20.056091c-2.061493-1.487701-3.013611-2.175018-3.965821-2.862305-.952087-.687286-1.904174-1.374603-3.965698-2.862304l-16.926788 12.995697c-2.525299-.814301-3.832215-1.235596-5.724304-1.845398l-2.290589-.738404-6.060516-20.407287-9.795899.009582-6.020202 20.419312c-3.410889 1.1073-4.597595 1.492187-8.009888 2.599487l-16.952301-12.96228c-2.058594 1.491791-3.009399 2.181-3.960113 2.870086-.950806.689209-1.901581 1.378418-3.960083 2.870118l7.184387 20.041992c-.731598 1.004303-1.297486 1.781189-1.812989 2.488586-.968292 1.329193-1.7583 2.413422-3.132721 4.301209l-21.368896-.567017c-1.031982 3.171204-1.333496 4.098023-1.865387 5.733002-.276794.851013-.616119 1.893921-1.15332 3.545105zm102.016113 16.120422c.019592 19.881897-16.082489 36.015778-35.964508 36.035401-19.881897.019592-36.015808-16.082611-36.0354-35.964508-.019593-19.881897 16.082611-36.0159 35.964508-36.035401 19.881897-.019592 36.015899 16.082489 36.0354 35.964508z" stroke="#fbd663" transform="translate(356.001221 254.511719)"/><path d="m10.545303 110.20308c.121003 1.297302.241989 2.594726.545197 5.841308l-.001206.002503 19.4749 2.104492c1.237503 3.970215 1.588501 5.095215 2.462707 7.897308l.806397 2.584992-14.819504 12.821716 1.853104 3.300903c1.265197 2.253693 1.531295 2.727692 3.890197 6.927887l18.646408-6.006195 7.24701 8.244293-8.327515 17.746216c1.678406 1.250183 2.709595 2.01828 3.509308 2.613892 1.691193 1.259613 2.3461 1.747406 5.894989 4.39151l14.593597-13.07901c2.375824 1.091613 3.680298 1.691101 4.984803 2.290619 1.304504.599487 2.6091 1.198974 4.984802 2.290496l-.39679 19.603394c3.179474.714508 4.449585.999908 5.719788 1.2854 1.269897.285492 2.539886.571198 5.718292 1.286194l8.016815-17.889801c2.643097.030304 4.081208.046906 5.532288.063599 1.420013.016388 2.852325.032898 5.437897.0625l7.60382 18.069702c4.847382-.972107 5.278595-1.058685 7.993409-1.60379.863769-.173523 1.958801-.393402 3.500885-.703003l.054901-19.607117c2.400696-1.03659 3.718597-1.605896 5.03659-2.175079 1.317902-.569214 2.635804-1.138397 5.036499-2.175019l14.289215 13.411103c2.657593-1.885803 3.719483-2.639191 4.781311-3.392792 1.06189-.753601 2.123688-1.507294 4.781495-3.39389l-7.916993-17.933625c1.77179-1.924591 2.744385-2.981201 3.717102-4.03778.972596-1.056611 1.945191-2.113221 3.71698-4.037812l18.5029 6.43451c1.662292-2.806702 2.325897-3.927308 2.990081-5.04889.663514-1.1203 1.327515-2.241516 2.987915-5.045105l-14.52008-13.160003c.836578-2.479218 1.295776-3.840515 1.755005-5.201905.459076-1.361297.918274-2.722686 1.754883-5.201812l19.518615-1.654908c.378083-3.239074.528992-4.533294.679993-5.827484.151001-1.294281.302002-2.588501.679993-5.827606l-18.612702-6.111084c-.243316-2.605316-.3768-4.035919-.510284-5.466614-.133515-1.430694-.267029-2.861297-.510315-5.466613l17.158996-9.458283c-.970306-3.111603-1.358398-4.355499-1.746307-5.59848-.388214-1.244202-.776215-2.48761-1.747406-5.60202l-19.486084 1.994598c-1.282287-2.283905-1.985901-3.536499-2.690124-4.790405-.702576-1.250885-1.405884-2.502991-2.685181-4.781494l11.832397-15.625489-2.407989-2.739303c-1.785919-2.031601-2.100128-2.389099-5.33551-6.070709l-16.991913 9.755386c-1.151306-.85788-2.017578-1.503388-2.75528-2.053085-1.949615-1.452805-3.0018-2.236802-6.045105-4.5038l4.459503-19.092605-10.65332-4.89589-11.557892 15.830399c-2.550995-.573303-3.951599-.888306-5.352203-1.2034-1.400574-.315002-2.801178-.630005-5.352295-1.203308l-3.684601-19.257492-11.721283-.134796-4.123901 19.168701c-2.563507.514587-3.970917.797195-5.378418 1.079697-1.407379.282592-2.814881.5652-5.378388 1.079696l-11.191101-16.092605-10.763092 4.648605 4.018982 19.190003c-2.132385 1.513702-3.303406 2.344894-4.474396 3.175994-1.17099.831208-2.34201 1.6624-4.474395 3.176117l-16.762299-10.145218c-2.207901 2.398011-3.090103 3.356308-3.972198 4.314499-.882202.958298-1.764298 1.916504-3.972199 4.314499l11.469299 15.894028c-1.335113 2.254272-2.067306 3.490356-2.800399 4.727966-.731201 1.234101-1.463105 2.469605-2.79451 4.717804l-19.434998-2.444183c-1.277389 3.7854-1.614792 4.785583-2.164093 6.413788-.347198 1.029205-.779098 2.309509-1.586609 4.703003l16.9357 9.851715c-.303192 2.598999-.469788 4.026275-.636398 5.453491-.166489 1.427185-.3331 2.854492-.636292 5.453491l-18.748703 5.680206c.303207 3.246613.424194 4.544007.545303 5.841279zm127.08519-8.874176c0 19.881896-16.117981 36-36 36-19.881897 0-36-16.118104-36-36 0-19.881989 16.118103-36 36-36 19.882019 0 36 16.118011 36 36z" stroke="#ceb052" transform="translate(204 146.999268)"/><path d="m10.004699 89.680802c.002289-2.045502.003388-3.014893.008209-6.960098l.00058.003906 22.092011-5.951706c.599212-2.0336.983887-3.339005 1.368683-4.644303.384704-1.305404.769409-2.610702 1.368622-4.644302l-15.325501-17.008499c1.0112-1.570297 1.661285-2.579697 2.182983-3.389694 1.096924-1.703003 1.626404-2.525208 3.751404-5.826111l21.804016 6.947815 1.755677-1.518112c1.93222-1.670594 3.032013-2.621491 5.565124-4.812897l-3.708221-22.598892c2.64032-1.2025 3.815124-1.737412 4.993011-2.273712 1.173004-.533997 2.348999-1.069397 4.978516-2.26709l14.593292 17.6427c2.100281-.299011 3.447479-.490997 4.795898-.683106 1.344178-.191604 2.689606-.3833 4.7836-.681305l9.087403-21.015396c2.864288.416809 4.142395.602509 5.419891.788208 1.278412.185791 2.556305.371399 5.422791.78859l2.749023 22.736114c2.514984 1.154496 3.853973 1.768799 5.553375 2.548386.90271.414108 1.906922.874802 3.243103 1.4879l18.996918-12.758194c3.520477 3.060898 3.900482 3.391296 6.196197 5.388.555695.483399 1.223694 1.064301 2.075684 1.805298l-9.968292 20.611206 5.221588 8.155091 22.875183-.451188c.319824 1.095688.569946 1.952301.777649 2.664002.846863 2.901398.990784 3.394195 2.295959 7.862091l-19.519653 11.940704-.011841 9.685303 19.491028 11.999298c-.81842 2.778793-1.183533 4.018494-1.548828 5.258194-.365295 1.239807-.730713 2.479508-1.549866 5.258606l-22.874328-.519211c-1.147492 1.781906-1.884095 2.92601-2.620606 4.070114-.73648 1.144104-1.472992 2.288178-2.620575 4.070099l9.918488 20.640503-8.288605 7.168884-18.96698-12.81488c-2.205109 1.003784-3.507416 1.596985-4.939026 2.249085-1.072174.488311-2.216888 1.009796-3.867798 1.761505l-2.803192 22.727386-10.845886 1.54422-9.036713-21.041809c-1.840698-.267609-3.102691-.451202-4.294403-.624695-1.522186-.221496-2.929504-.426208-5.281402-.767914l-14.63501 17.598816c-2.632385-1.207794-3.806397-1.746612-4.980499-2.2854-1.173981-.538818-2.348084-1.077606-4.9805-2.2854l3.762024-22.58841-7.305908-6.353485-21.820495 6.88269-1.383698-2.161712c-1.730408-2.703491-1.961609-3.064606-4.528015-7.072388l15.367004-16.962601c-1.175293-4.021698-1.51889-5.1987-2.672485-9.150299l-.042908-.147003-22.078399-6.018906zm113.474884-1.346802c0-19.881989-16.118072-36-36-36-19.881988 0-36 16.117996-36 36 0 19.881897 16.118012 36.000015 36 36.000015 19.881928 0 36-16.118118 36-36.000015z" stroke="#a18a41" transform="translate(357.000122 76.146484)"/><path d="m10 93.720596 17.633697-12.026596v-8.388l-17.633697-12.026703c1.0354-3.170998 1.337707-4.097199 1.871398-5.732399.27771-.850494.61789-1.892799 1.156495-3.542694l21.368194.588096c.730927-1.001197 1.296723-1.776199 1.811798-2.481803.971314-1.330498 1.762604-2.414299 3.140717-4.303093l-7.164704-20.049004c2.059998-1.4898 3.011506-2.178001 3.962891-2.866303.951416-.688194 1.902924-1.376396 3.962921-2.866195l16.939575 12.978996c2.552918-.825996 3.86023-1.248794 5.786499-1.871696l2.225922-.719902 6.040405-20.4133h9.795899l6.040283 20.4133c2.545807.8237 3.852997 1.246398 5.770508 1.8666.652405.210998 1.375397.444801 2.241913.724998l16.939575-12.978996c2.059997 1.489799 3.011505 2.178001 3.962921 2.866195.951386.688302 1.902893 1.376503 3.962891 2.866303l-7.164612 20.049004c.723205.990898 1.284912 1.760192 1.795715 2.459899.978699 1.3405 1.770996 2.425896 3.156708 4.325097l21.368194-.588196c1.071198 3.280494 1.357697 4.158493 1.927582 5.904396.267517.819603.597504 1.830398 1.100312 3.370697l-17.633698 12.026703v8.388l17.633698 12.026703c-1.06839 3.272095-1.356293 4.1539-1.92331 5.890991-.268188.8219-.598999 1.835297-1.104584 3.38411l-21.368316-.588211c-.724976.993408-1.287598 1.764007-1.7995 2.465103-.976898 1.338211-1.768982 2.423111-3.152893 4.3199l7.164704 20.049012c-2.059998 1.489792-3.011505 2.177993-3.962891 2.866287-.951416.688202-1.902924 1.376404-3.962921 2.866211l-16.939575-12.979004c-2.524506.816803-3.831025 1.239304-5.722504 1.850998l-2.289917.7406-6.040375 20.4133h-9.795929l-6.040283-20.4133c-3.412018-1.104003-4.59909-1.487701-8.012421-2.591598l-16.939575 12.979004c-2.059997-1.489807-3.011505-2.178009-3.962921-2.866211-.951477-.688294-1.902893-1.376495-3.962891-2.866287l7.164612-20.049012c-.732513-1.003601-1.299225-1.779892-1.815399-2.486801-.969604-1.328201-1.76062-2.411697-3.137024-4.298202l-21.368286.588211c-1.035095-3.170304-1.337494-4.096802-1.871002-5.731201-.27771-.8508-.618012-1.893296-1.156799-3.544007zm102.001007-16.220596c0-19.881897-16.118103-36-36-36s-36 16.118103-36 36 16.117981 36 36 36c19.881897 0 36-16.118103 36-36z" stroke="#746330" transform="translate(254.000092 2.5)"/><path d="m42.931999 11h12s2 0 2 2v2s0 2-2 2h-12s-2 0-2-2v-2s0-2 2-2m-23.363998 6.5c0 3.037567 2.462433 5.5 5.5 5.5 3.037565 0 5.5-2.462433 5.5-5.5 0-3.037565-2.462435-5.5-5.5-5.5-3.037567 0-5.5 2.462435-5.5 5.5m18.841999 6.625999c-1.034687-1.289316-2.91742-1.498607-4.209999-.467998l-1.439999 1.152c-1.77466 1.419115-3.979713 2.191519-6.252003 2.189999h-4.983999c-2.271601.001722-4.474754.777731-6.246 2.199999l-3.078 2.458002c-1.293451 1.035534-1.502534 2.92355-.467 4.216999s2.923549 1.502533 4.217001.467003l4.171999-3.342003h1.946001v7.292l-3.468001 6.93-4.5 4.504002c-1.172057 1.112644-1.311212 2.932049-.322 4.209999.541562.640957 1.326813 1.025806 2.165185 1.061153.838372.035343 1.653228-.282051 2.246816-.875152l4.999998-5c.227306-.226765.416418-.488819.560001-.776001l2.658001-5.316002 3.858 1.928001.817999 7.377999c.170959 1.516807 1.45359 2.663429 2.980003 2.664001.181557-.000057.362808-.014771.542-.043999 1.557758-.27436 2.630287-1.71727 2.444-3.287998l-1.000004-9.000004c-.113914-1.011898-.73172-1.897594-1.641998-2.354l-6.34-3.167999v-6.146h.543999c2.272121-.002228 4.475746-.778152 6.248001-2.199999l3.083999-2.466001c1.2874-1.035132 1.49572-2.916266.466004-4.208001zm2.748001 12.017998c4.89333 2.446133 10.652672 2.446133 15.546001.000004m-13.148002-6.496c3.363239 1.776144 7.386764 1.776144 10.75 0m-8.382-6.434c1.846569 1.125942 4.167434 1.125942 6.014 0" stroke="#ce9e07" transform="translate(296 46.001953)"/><path d="m44 24.040001 6.216-6.172001m-1.216-2.868c0 2.209139 1.790859 4 4 4s4-1.790861 4-4-1.790859-4-4-4-4 1.790861-4 4zm-3.076 30.958 4.229999 4.256001m-1.133999 2.785999c0 2.209141 1.79086 4 4 4 2.209137 0 4-1.790859 4-4s-1.790863-4-4-4c-2.20914 0-4 1.790859-4 4zm-25.02-28.959999-6.214001-6.172001m-6.785999-2.868c0 2.209139 1.790861 4 4 4s4-1.790861 4-4-1.790861-4-4-4-4 1.790861-4 4zm11.077999 30.958-4.231998 4.256001m-6.866001 2.785999c0 2.209141 1.790861 4 4 4 2.209138 0 4-1.790859 4-4s-1.790862-4-4-4c-2.209139 0-4 1.790859-4 4zm32.02-20h6m0 0c0 2.209137 1.790859 4 4 4s4-1.790863 4-4c0-2.209139-1.790859-4-4-4s-4 1.790861-4 4zm-24 0h-6m-8 0c0 2.209137 1.790861 4 4 4s4-1.790863 4-4c0-2.209139-1.790861-4-4-4s-4 1.790861-4 4zm14.02 10c0-4.970562 4.029437-9 9-9 4.970562 0 9 4.029438 9 9zm3.5-16.5c0 3.037567 2.462435 5.5 5.5 5.5 3.037568 0 5.5-2.462433 5.5-5.5 0-3.037565-2.462432-5.5-5.5-5.5-3.037565 0-5.5 2.462435-5.5 5.5z" stroke="#ce9e07" transform="translate(410 130)"/><path d="m56.5 51.537998c0 2.761425-2.238575 5.000004-5 5.000004l-35-.000004c-2.761423.000004-5-2.238575-5-4.999996 0-2.761425 2.238577-5 5-5l35-.000004c2.761425.000004 5 2.238579 5 5.000004zm-38.18-15.235996h11.507999v10.236h-11.507999zm-.32 15.235996c0 .552288.447716 1 1 1s1-.447712 1-1c0-.552284-.447716-1-1-1s-1 .447716-1 1m10 0c0 .552288.447716 1 1 1s1-.447712 1-1c0-.552284-.447716-1-1-1s-1 .447716-1 1m10.084 0c0 .552288.447715 1 1 1 .552284 0 1-.447712 1-1 0-.552284-.447716-1-1-1-.552285 0-1 .447716-1 1m10 0c0 .552288.447715 1 1 1 .552284 0 1-.447712 1-1 0-.552284-.447716-1-1-1-.552285 0-1 .447716-1 1m-24.009999-11.149998v-4.085998m15.009999 0h11.507999v10.236h-11.507999zm5.754001 4.085998v-4.085998m9.705998-14.862003-9.98-9.977999v6.486h-28.515999v7.314001h28.515999v6.157999z" stroke="#ce9e07" transform="translate(272 214)"/><path d="m20.908001 27.620001c-1.168232-4.988917.707745-10.198223 4.788475-13.296882s9.60247-3.506734 14.094379-1.041619c4.491913 2.465113 7.113293 7.34205 6.691143 12.4485m-24.661998-6.627999h2.458c1.982609.149586 3.558411 1.72539 3.708 3.707998v3.454001c0 .511999.455999.954.958 1.354m7.554001-15.594s-2.164001 1.704-2.956001 2.313999c-1.335182 1.02875-1.595436 2.939656-.584 4.288l1.862 2.484002c.582084.775066 1.494697 1.231371 2.464 1.231998h1.8c.817016-.000719 1.600715.323841 2.178001.902l1.421997 1.420001m7.986 23.553999-9.983997.832m-1.827999-12.619999-6.974001 2.306c-1.117678.367287-2.333138-.161735-2.826-1.229999-.532174-1.144528-.061614-2.504906 1.063999-3.076001l6.755998-3.399999c1.163803-.586352 2.518463-.664547 3.742001-.216002l10 3.658001m-19.467999-.559997-.720001-.600003c-1.177643-.862903-2.717394-1.056507-4.071998-.512001l-8.950001 3.579998m-6.034-3.423996h4.024c1.063615-.045196 1.963367.778534 2.012001 1.841999v12.904c-.048643 1.063755-.948046 1.888057-2.012001 1.844001h-4.024m45.248001 0h-4.024003c-1.063953.044056-1.963356-.780246-2.011997-1.844001v-12.902001c.04863-1.063465.948384-1.887192 2.011997-1.841999h4.022004m-20.526001 5.042 5.199997 7.138c.656051.900876.715397 2.105034.151115 3.066052-.564285.961018-1.644752 1.495911-2.751114 1.36195-.270004 1.442768-1.617882 2.424957-3.073997 2.239998-.270897 1.442432-1.617775 2.424766-3.074002 2.242-.216114 1.087815-1.053934 1.945546-2.136375 2.187146-1.08244.2416-2.205464-.178471-2.863625-1.071145l-5.246-6.592002c-.776005-.985775-1.94626-1.58041-3.199999-1.626l-1.692001-.059997m15.146 7.157997-1.404-1.723999m4.477997-.518002-1.201996-1.595997m4.276001-.644001-1.314003-1.785999" stroke="#ce9e07" transform="translate(398 298)"/></g></svg>