<svg height="722.539" viewBox="0 0 720 722.539" width="720" xmlns="http://www.w3.org/2000/svg"><path d="m275.321 690.449-4.372-17.249a223.916 223.916 0 0 0 -23.758-8.524l-.552 8.015-2.238-8.83c-10.012-2.862-16.824-4.121-16.824-4.121s9.2 34.987 28.5 61.735l22.486 3.95-17.469 2.519a90.608 90.608 0 0 0 7.811 8.28c28.072 26.057 59.34 38.013 69.838 26.7s-3.749-41.6-31.822-67.656c-8.7-8.078-19.635-14.56-30.579-19.664z" fill="#f2f2f2" transform="translate(-143.577 -47.195)"/><path d="m345.1 652.214 5.171-17.023a223.933 223.933 0 0 0 -15.931-19.578l-4.615 6.576 2.648-8.716c-7.093-7.623-12.273-12.221-12.273-12.221s-10.208 34.706-7.516 67.579l17.207 15-16.259-6.874a90.606 90.606 0 0 0 2.409 11.128c10.562 36.817 31.149 63.214 45.982 58.958s18.295-37.551 7.732-74.368c-3.274-11.414-9.283-22.614-16.013-32.638z" fill="#f2f2f2" transform="translate(-171.772 -27.692)"/><path d="m734.978 247.559h-3.956v-108.372a62.725 62.725 0 0 0 -62.722-62.725h-229.613a62.725 62.725 0 0 0 -62.725 62.725v594.549a62.725 62.725 0 0 0 62.725 62.725h229.613a62.725 62.725 0 0 0 62.724-62.724v-409.037h3.956z" fill="#e6e6e6" transform="translate(-195.964 -76.462)"/><path d="m671.423 93.336h-29.969a22.255 22.255 0 0 1 -20.607 30.659h-131.541a22.254 22.254 0 0 1 -20.606-30.66h-27.992a46.843 46.843 0 0 0 -46.843 46.843v593.686a46.843 46.843 0 0 0 46.843 46.843h230.715a46.843 46.843 0 0 0 46.843-46.843v-593.687a46.843 46.843 0 0 0 -46.842-46.842z" fill="#fff" transform="translate(-196.559 -77.023)"/><path d="m530.421 337.151a23.626 23.626 0 0 1 11.827-20.472 23.637 23.637 0 1 0 0 40.939 23.621 23.621 0 0 1 -11.823-20.467z" fill="#ccc" transform="translate(-200.314 -84.345)"/><path d="m561.158 337.151a23.625 23.625 0 0 1 11.827-20.472 23.637 23.637 0 1 0 0 40.939 23.621 23.621 0 0 1 -11.823-20.467z" fill="#ccc" transform="translate(-201.337 -84.345)"/><circle cx="388.862" cy="252.806" fill="#009c88" r="23.637"/><path d="m627.963 409.252h-137.763a4.953 4.953 0 0 1 -4.947-4.947v-137.762a4.953 4.953 0 0 1 4.947-4.943h137.763a4.953 4.953 0 0 1 4.947 4.947v137.753a4.953 4.953 0 0 1 -4.947 4.947zm-137.763-145.676a2.971 2.971 0 0 0 -2.968 2.968v137.762a2.971 2.971 0 0 0 2.968 2.968h137.763a2.971 2.971 0 0 0 2.968-2.968v-137.762a2.971 2.971 0 0 0 -2.968-2.968z" fill="#ccc" transform="translate(-199.598 -82.618)"/><path d="m247.841 432.234h211.284v1.979h-211.284z" fill="#ccc"/><circle cx="254.513" cy="413.206" fill="#009c88" r="6.672"/><path d="m247.841 498.955h211.284v1.979h-211.284z" fill="#ccc"/><g fill="#009c88"><circle cx="254.513" cy="479.928" r="6.672"/><path d="m658.244 670.068h-66.772a4.355 4.355 0 0 1 -4.35-4.35v-23.4a4.355 4.355 0 0 1 4.35-4.35h66.772a4.355 4.355 0 0 1 4.35 4.35v23.4a4.355 4.355 0 0 1 -4.35 4.35z" transform="translate(-202.986 -95.134)"/><circle cx="276.278" cy="413.206" r="6.672"/><circle cx="298.043" cy="413.206" r="6.672"/><circle cx="276.278" cy="479.928" r="6.672"/><circle cx="298.043" cy="479.928" r="6.672"/></g><path d="m966.106 823.539h-714.464c-1.529 0-2.768-.546-2.768-1.218s1.239-1.219 2.768-1.219h714.464c1.528 0 2.768.546 2.768 1.219s-1.24 1.218-2.768 1.218z" fill="#e6e6e6" transform="translate(-248.874 -101)"/><path d="m893.722 361.268-16.8 33.257-50.222 22.834c-5.364 9.065-22.409 9.759-23.649 3.9-1.391-6.576 20.7-17.161 20.7-17.161l42.012-28.416 3.676-24.463z" fill="#ffb9b9" transform="translate(-267.97 91.633)"/><path d="m742.662 464.215 3.098 24.785-17.969 1.24-1.858-26.023z" fill="#ffb9b9" transform="translate(-118.891 211.863)"/><path d="m900.869 676.83a48.641 48.641 0 0 0 4.434-5.422c2.575-3.564 4.86 14.716 4.86 14.716s2.479 7.435 1.859 11.153-14.87 3.718-17.349 3.1-14.87 0-14.87 0h-18.588c-16.11-7.435 0-12.392 0-12.392 4.957-.62 21.686-16.11 21.686-16.11l3.718-6.815c2.478-.62 4.957 8.674 4.957 8.674z" fill="#090814" transform="translate(-279.575 20.315)"/><path d="m802.8 464.616 3.1 24.784-17.969 1.24-1.859-26.024z" fill="#ffb9b9" transform="translate(-132.558 211.772)"/><path d="m961.005 677.231a48.7 48.7 0 0 0 4.434-5.422c2.575-3.564 4.86 14.716 4.86 14.716s2.478 6.816 1.859 10.533-14.87 3.717-17.349 3.1-14.87.62-14.87.62h-18.588c-16.11-7.435 0-12.392 0-12.392 4.957-.62 21.686-16.11 21.686-16.11l3.718-6.815c2.478-.62 4.957 8.674 4.957 8.674z" fill="#090814" transform="translate(-293.243 20.224)"/><path d="m930.929 446.165c2.479 3.1 1.239 13.631 1.239 13.631s4.337 34.078 2.478 37.176 1.239 5.576 3.1 9.914 3.718 14.87 3.718 14.87c10.533 8.674 9.914 48.329 9.914 48.329l3.717 35.317c-1.239 3.718-18.588 4.337-21.066 3.718s-9.914-56.384-9.914-56.384l-16.729-31.6s1.239 84.265 1.239 87.983-16.729 1.859-20.447 1.859-3.718-61.96-3.718-61.96l-3.718-16.109-19.827-73.732v-8.677l3.1-4.337s64.436-3.096 66.914.002z" fill="#090814" transform="translate(-281.136 70.367)"/><circle cx="622.533" cy="356.676" fill="#ffb9b9" r="19.208"/><path d="m901.99 251.326c3.893 8.67 1.588 20.779-6.2 34.078l31.6-14.87-4.957-4.337 1.239-12.392z" fill="#ffb9b9" transform="translate(-289.061 114.333)"/><path d="m894.154 275.527c-4.138 2.46-6.613 6.98-8.034 11.58a109.735 109.735 0 0 0 -4.716 26.218l-1.5 26.64-18.588 70.635c16.109 13.631 25.4 10.533 47.089-.62s24.165 3.72 24.165 3.72 1.859-.62 0-2.478 0 0 1.859-1.859 0 0-.62-1.859 0-.62.62-1.239-2.478-6.2-2.478-6.2l4.957-46.47 6.2-65.677c-7.435-9.294-28.5-17.349-28.5-17.349l-19.214 13.631c-6.2 2.478-1.239-7.435-1.239-7.435z" fill="#009c88" transform="translate(-281.227 109.96)"/><path d="m968.242 343.937 2.478 37.176-31.6 45.231c0 10.533-5.576 13.012-5.576 13.012a81.9 81.9 0 0 1 -5.576-10.533c-3.1-6.816 1.859-12.392 1.859-12.392l21.686-45.85-9.294-22.925z" fill="#ffb9b9" transform="translate(-296.143 93.286)"/><path d="m960.1 293.046c10.533 3.718 12.392 43.992 12.392 43.992-12.392-6.816-27.262 4.337-27.262 4.337s-3.1-10.533-6.816-24.164a23.68 23.68 0 0 1 4.957-22.306s6.192-5.576 16.729-1.859z" fill="#009c88" transform="translate(-298.53 105.143)"/><path d="m928.148 237.734c-2.445-1.956-5.781 1.6-5.781 1.6l-1.956-17.606s-12.226 1.467-20.051-.489-9.047 7.091-9.047 7.091a62.8 62.8 0 0 1 -.245-11c.489-4.4 6.847-8.8 18.095-11.737s17.116 9.781 17.116 9.781c7.821 3.909 4.314 24.317 1.869 22.36z" fill="#090814" transform="translate(-287.958 124.827)"/></svg>